<?xml version="1.0" standalone="no"?>
<svg xmlns="http://www.w3.org/2000/svg" xmlns:xlink="http://www.w3.org/1999/xlink" width="775pt" height="279pt" viewBox="0.00 0.00 774.78 278.60">
<g id="graph0" class="graph" transform="translate(4,274.6000061035156) scale(1)" data-name="nucleo-g431rb">

<polygon fill="white" stroke="none" points="-4,4 -4,-274.6 770.78,-274.6 770.78,4 -4,4" style=""/>
<g id="clust1" class="cluster" data-name="clusterLegend">

<polygon fill="none" stroke="black" points="8,-8 8,-262.6 554,-262.6 554,-8 8,-8" style=""/>
<text text-anchor="middle" x="281" y="-246" font-family="Times,serif" font-size="14.00" style="">Legend</text>
</g>
<!-- legendNode0 -->
<g id="node1" class="node" pointer-events="visible" data-name="legendNode0">

<polygon fill="none" stroke="black" points="295.37,-193.85 298.27,-193.95 301.14,-194.1 303.96,-194.29 306.73,-194.54 309.44,-194.83 312.07,-195.16 314.62,-195.55 317.07,-195.98 319.42,-196.45 321.66,-196.96 323.78,-197.51 325.76,-198.11 327.62,-198.74 329.34,-199.41 330.91,-200.11 332.33,-200.84 333.61,-201.6 334.73,-202.39 335.7,-203.21 336.51,-204.05 337.17,-204.91 337.67,-205.79 338.02,-206.69 338.22,-207.6 338.28,-208.52 338.19,-209.45 337.96,-210.39 337.59,-211.33 337.1,-212.27 336.48,-213.21 335.75,-214.15 334.9,-215.08 333.94,-216 332.89,-216.91 331.74,-217.81 330.5,-218.69 329.19,-219.55 327.79,-220.39 326.33,-221.21 324.81,-222 323.23,-222.76 321.6,-223.49 319.93,-224.19 318.21,-224.86 316.46,-225.49 314.67,-226.09 312.86,-226.64 311.03,-227.15 309.17,-227.62 307.3,-228.05 305.41,-228.44 303.51,-228.77 301.6,-229.06 299.68,-229.31 297.76,-229.5 295.83,-229.65 293.9,-229.75 291.97,-229.8 290.03,-229.8 288.1,-229.75 286.17,-229.65 284.24,-229.5 282.32,-229.31 280.4,-229.06 278.49,-228.77 276.59,-228.44 274.7,-228.05 272.83,-227.62 270.97,-227.15 269.14,-226.64 267.33,-226.09 265.54,-225.49 263.79,-224.86 262.07,-224.19 260.4,-223.49 258.77,-222.76 257.19,-222 255.67,-221.21 254.21,-220.39 252.81,-219.55 251.5,-218.69 250.26,-217.81 249.11,-216.91 248.06,-216 247.1,-215.08 246.25,-214.15 245.52,-213.21 244.9,-212.27 244.41,-211.33 244.04,-210.39 243.81,-209.45 243.72,-208.52 243.78,-207.6 243.98,-206.69 244.33,-205.79 244.83,-204.91 245.49,-204.05 246.3,-203.21 247.27,-202.39 248.39,-201.6 249.67,-200.84 251.09,-200.11 252.66,-199.41 254.38,-198.74 256.24,-198.11 258.22,-197.51 260.34,-196.96 262.58,-196.45 264.93,-195.98 267.38,-195.55 269.93,-195.16 272.56,-194.83 275.27,-194.54 278.04,-194.29 280.86,-194.1 283.73,-193.95 286.63,-193.85 289.54,-193.8 292.46,-193.8 295.37,-193.85" style=""/>
<text text-anchor="middle" x="291" y="-208.2" font-family="Times,serif" font-size="12.00" style="">Executable</text>
</g>
<!-- legendNode1 -->
<g id="node2" class="node" pointer-events="visible" data-name="legendNode1">

<polygon fill="none" stroke="black" points="129.81,-123.34 129.81,-138.26 96.53,-148.8 49.47,-148.8 16.19,-138.26 16.19,-123.34 49.47,-112.8 96.53,-112.8 129.81,-123.34" style=""/>
<text text-anchor="middle" x="73" y="-127.2" font-family="Times,serif" font-size="12.00" style="">Static Library</text>
</g>
<!-- legendNode0&#45;&gt;legendNode1 -->
<g id="edge1" class="edge" data-name="legendNode0-&gt;legendNode1">

<path fill="none" stroke="black" d="M254.68,-198.14C223.84,-187.32 178.44,-171.27 139,-156.8 132.51,-154.42 125.67,-151.87 118.96,-149.35" style=""/>
<polygon fill="black" stroke="black" points="120.58,-146.22 109.99,-145.96 118.11,-152.77 120.58,-146.22" style=""/>
</g>
<!-- legendNode2 -->
<g id="node3" class="node" pointer-events="visible" data-name="legendNode2">

<polygon fill="none" stroke="black" points="274.09,-123.34 274.09,-138.26 238.3,-148.8 187.7,-148.8 151.91,-138.26 151.91,-123.34 187.7,-112.8 238.3,-112.8 274.09,-123.34" style=""/>
<polygon fill="none" stroke="black" points="278.09,-120.35 278.09,-141.25 238.88,-152.8 187.12,-152.8 147.91,-141.25 147.91,-120.35 187.12,-108.8 238.88,-108.8 278.09,-120.35" style=""/>
<text text-anchor="middle" x="213" y="-127.2" font-family="Times,serif" font-size="12.00" style="">Shared Library</text>
</g>
<!-- legendNode0&#45;&gt;legendNode2 -->
<g id="edge2" class="edge" data-name="legendNode0-&gt;legendNode2">

<path fill="none" stroke="black" d="M274.84,-194.43C265.36,-184.83 253.1,-172.41 242,-161.17" style=""/>
<polygon fill="black" stroke="black" points="244.76,-158.98 235.24,-154.33 239.78,-163.9 244.76,-158.98" style=""/>
</g>
<!-- legendNode3 -->
<g id="node4" class="node" pointer-events="visible" data-name="legendNode3">

<polygon fill="none" stroke="black" points="431.66,-123.34 431.66,-138.26 394.37,-148.8 341.63,-148.8 304.34,-138.26 304.34,-123.34 341.63,-112.8 394.37,-112.8 431.66,-123.34" style=""/>
<polygon fill="none" stroke="black" points="435.65,-120.32 435.65,-141.28 394.92,-152.8 341.08,-152.8 300.35,-141.28 300.35,-120.32 341.08,-108.8 394.92,-108.8 435.65,-120.32" style=""/>
<polygon fill="none" stroke="black" points="439.64,-117.29 439.64,-144.31 395.47,-156.8 340.53,-156.8 296.36,-144.31 296.36,-117.29 340.53,-104.8 395.47,-104.8 439.64,-117.29" style=""/>
<text text-anchor="middle" x="368" y="-127.2" font-family="Times,serif" font-size="12.00" style="">Module Library</text>
</g>
<!-- legendNode0&#45;&gt;legendNode3 -->
<!-- legendNode7 -->
<g id="node8" class="node" pointer-events="visible" data-name="legendNode7">

<polygon fill="none" stroke="black" points="545.65,-148.8 458.35,-148.8 458.35,-112.8 545.65,-112.8 545.65,-148.8" style=""/>
<text text-anchor="middle" x="502" y="-127.2" font-family="Times,serif" font-size="12.00" style="">Custom Target</text>
</g>
<!-- legendNode0&#45;&gt;legendNode7 -->
<!-- legendNode4 -->
<g id="node5" class="node" pointer-events="visible" data-name="legendNode4">

<polygon fill="none" stroke="black" points="170.12,-39.56 93,-52 15.88,-39.56 45.34,-19.44 140.66,-19.44 170.12,-39.56" style=""/>
<text text-anchor="middle" x="93" y="-30.4" font-family="Times,serif" font-size="12.00" style="">Interface Library</text>
</g>
<!-- legendNode1&#45;&gt;legendNode4 -->
<g id="edge4" class="edge" data-name="legendNode1-&gt;legendNode4">

<path fill="none" stroke="black" stroke-dasharray="5,2" d="M76.67,-112.41C79.61,-98.48 83.79,-78.66 87.18,-62.57" style=""/>
<polygon fill="black" stroke="black" points="90.54,-63.63 89.18,-53.12 83.69,-62.18 90.54,-63.63" style=""/>
<text text-anchor="middle" x="110.87" y="-74.2" font-family="Times,serif" font-size="14.00" style="">Interface</text>
</g>
<!-- legendNode5 -->
<g id="node6" class="node" pointer-events="visible" data-name="legendNode5">

<polygon fill="none" stroke="black" points="316.28,-34 284.14,-52 219.86,-52 187.72,-34 219.86,-16 284.14,-16 316.28,-34" style=""/>
<text text-anchor="middle" x="252" y="-30.4" font-family="Times,serif" font-size="12.00" style="">Object Library</text>
</g>
<!-- legendNode2&#45;&gt;legendNode5 -->
<g id="edge5" class="edge" data-name="legendNode2-&gt;legendNode5">

<path fill="none" stroke="black" stroke-dasharray="1,5" d="M221.66,-108.76C227.2,-95.29 234.46,-77.64 240.48,-62.99" style=""/>
<polygon fill="black" stroke="black" points="243.66,-64.47 244.23,-53.89 237.19,-61.8 243.66,-64.47" style=""/>
<text text-anchor="middle" x="257.83" y="-74.2" font-family="Times,serif" font-size="14.00" style="">Private</text>
</g>
<!-- legendNode6 -->
<g id="node7" class="node" pointer-events="visible" data-name="legendNode6">

<polygon fill="none" stroke="black" points="479.56,-29.99 465.19,-45.22 407,-52 348.81,-45.22 334.44,-29.99 374.71,-17.78 439.29,-17.78 479.56,-29.99" style=""/>
<text text-anchor="middle" x="407" y="-30.4" font-family="Times,serif" font-size="12.00" style="">Unknown Library</text>
</g>
<!-- legendNode3&#45;&gt;legendNode6 -->
<g id="edge6" class="edge" data-name="legendNode3-&gt;legendNode6">

<path fill="none" stroke="black" d="M378.45,-104.4C383.85,-91.28 390.43,-75.29 395.91,-61.96" style=""/>
<polygon fill="black" stroke="black" points="399.06,-63.49 399.63,-52.91 392.59,-60.83 399.06,-63.49" style=""/>
</g>
<!-- node0 -->
<g id="node9" class="node" pointer-events="visible" data-name="node0">

<polygon fill="none" stroke="black" points="703.63,-130.8 668.81,-148.8 599.19,-148.8 564.37,-130.8 599.19,-112.8 668.81,-112.8 703.63,-130.8" style=""/>
<text text-anchor="middle" x="634" y="-127.2" font-family="Times,serif" font-size="12.00" style="">STM32_Drivers</text>
</g>
<!-- node1 -->
<g id="node10" class="node" pointer-events="visible" data-name="node1">

<polygon fill="none" stroke="black" points="766.57,-39.56 701,-52 635.43,-39.56 660.48,-19.44 741.52,-19.44 766.57,-39.56" style=""/>
<text text-anchor="middle" x="701" y="-30.4" font-family="Times,serif" font-size="12.00" style="">stm32cubemx</text>
</g>
<!-- node0&#45;&gt;node1 -->
<g id="edge8" class="edge" data-name="node0-&gt;node1">

<path fill="none" stroke="black" d="M646.29,-112.41C656.77,-97.58 671.97,-76.08 683.68,-59.5" style=""/>
<polygon fill="black" stroke="black" points="686.33,-61.82 689.25,-51.63 680.62,-57.78 686.33,-61.82" style=""/>
</g>
<!-- node2 -->
<g id="node11" class="node" pointer-events="visible" data-name="node2">

<polygon fill="none" stroke="black" points="706.41,-193.85 709.99,-193.95 713.54,-194.1 717.03,-194.29 720.46,-194.54 723.8,-194.83 727.06,-195.16 730.21,-195.55 733.24,-195.98 736.15,-196.45 738.91,-196.96 741.53,-197.51 743.99,-198.11 746.28,-198.74 748.41,-199.41 750.35,-200.11 752.11,-200.84 753.69,-201.6 755.08,-202.39 756.27,-203.21 757.28,-204.05 758.09,-204.91 758.71,-205.79 759.15,-206.69 759.39,-207.6 759.46,-208.52 759.35,-209.45 759.07,-210.39 758.62,-211.33 758.01,-212.27 757.24,-213.21 756.33,-214.15 755.28,-215.08 754.1,-216 752.8,-216.91 751.38,-217.81 749.85,-218.69 748.22,-219.55 746.5,-220.39 744.69,-221.21 742.81,-222 740.86,-222.76 738.84,-223.49 736.77,-224.19 734.65,-224.86 732.48,-225.49 730.27,-226.09 728.03,-226.64 725.76,-227.15 723.47,-227.62 721.15,-228.05 718.82,-228.44 716.47,-228.77 714.11,-229.06 711.74,-229.31 709.36,-229.5 706.98,-229.65 704.59,-229.75 702.2,-229.8 699.8,-229.8 697.41,-229.75 695.02,-229.65 692.64,-229.5 690.26,-229.31 687.89,-229.06 685.53,-228.77 683.18,-228.44 680.85,-228.05 678.53,-227.62 676.24,-227.15 673.97,-226.64 671.73,-226.09 669.52,-225.49 667.35,-224.86 665.23,-224.19 663.16,-223.49 661.14,-222.76 659.19,-222 657.31,-221.21 655.5,-220.39 653.78,-219.55 652.15,-218.69 650.62,-217.81 649.2,-216.91 647.9,-216 646.72,-215.08 645.67,-214.15 644.76,-213.21 643.99,-212.27 643.38,-211.33 642.93,-210.39 642.65,-209.45 642.54,-208.52 642.61,-207.6 642.85,-206.69 643.29,-205.79 643.91,-204.91 644.72,-204.05 645.73,-203.21 646.92,-202.39 648.31,-201.6 649.89,-200.84 651.65,-200.11 653.59,-199.41 655.72,-198.74 658.01,-198.11 660.47,-197.51 663.09,-196.96 665.85,-196.45 668.76,-195.98 671.79,-195.55 674.94,-195.16 678.2,-194.83 681.54,-194.54 684.97,-194.29 688.46,-194.1 692.01,-193.95 695.59,-193.85 699.19,-193.8 702.81,-193.8 706.41,-193.85" style=""/>
<text text-anchor="middle" x="701" y="-208.2" font-family="Times,serif" font-size="12.00" style="">nucleo-g431rb</text>
</g>
<!-- node2&#45;&gt;node0 -->
<g id="edge9" class="edge" data-name="node2-&gt;node0">

<path fill="none" stroke="black" stroke-dasharray="1,5" d="M686.79,-194.05C677.85,-183.51 666.14,-169.69 656.01,-157.75" style=""/>
<polygon fill="black" stroke="black" points="658.77,-155.59 649.63,-150.23 653.43,-160.12 658.77,-155.59" style=""/>
</g>
<!-- node2&#45;&gt;node1 -->
<g id="edge10" class="edge" data-name="node2-&gt;node1">

<path fill="none" stroke="black" stroke-dasharray="1,5" d="M705.87,-193.45C708.56,-182.94 711.64,-169.21 713,-156.8 715.52,-133.83 714.97,-127.83 713,-104.8 711.81,-90.87 709.31,-75.55 706.9,-62.82" style=""/>
<polygon fill="black" stroke="black" points="710.34,-62.15 704.96,-53.02 703.47,-63.51 710.34,-62.15" style=""/>
</g>
</g>
</svg>